# Blender 3.6.4
# www.blender.org
mtllib mcl_candles_candle_3.mtl
o Candle_1
v -0.187500 -0.500000 0.000000
v -0.187500 -0.125000 0.000000
v -0.187500 -0.500000 -0.125000
v -0.187500 -0.125000 -0.125000
v -0.062500 -0.500000 0.000000
v -0.062500 -0.125000 0.000000
v -0.062500 -0.500000 -0.125000
v -0.062500 -0.125000 -0.125000
v -0.147097 -0.062500 -0.084597
v -0.102903 -0.062500 -0.040403
v -0.147097 -0.125000 -0.084597
v -0.102903 -0.125000 -0.040403
v -0.102903 -0.062500 -0.084597
v -0.147097 -0.062500 -0.040403
v -0.102903 -0.125000 -0.084597
v -0.147097 -0.125000 -0.040403
vn -1.0000 -0.0000 -0.0000
vn -0.0000 -0.0000 -1.0000
vn 1.0000 -0.0000 -0.0000
vn -0.0000 -0.0000 1.0000
vn -0.0000 -1.0000 -0.0000
vn -0.0000 1.0000 -0.0000
vn 0.7071 -0.0000 -0.7071
vn 0.7071 -0.0000 0.7071
vt 0.375000 0.625000
vt 0.375000 1.000000
vt 0.250000 1.000000
vt 0.250000 0.625000
vt 0.500000 0.625000
vt 0.500000 1.000000
vt 0.125000 0.625000
vt 0.125000 1.000000
vt 0.000000 1.000000
vt 0.000000 0.625000
vt 0.250000 0.625000
vt 0.125000 1.000000
vt 0.125000 0.625000
vt 0.875000 0.750000
vt 1.000000 0.750000
vt 1.000000 0.875000
vt 0.875000 0.875000
vt 1.000000 1.000000
vt 0.875000 1.000000
vt 0.625000 0.000000
vt 0.687500 0.000000
vt 0.687500 0.062500
vt 0.625000 0.062500
vt 0.562500 0.062500
vt 0.625000 0.125000
vt 0.562500 0.125000
s 0
g Candle_1_Candles
usemtl Candles
f 1/1/1 2/2/1 4/3/1 3/4/1
f 3/5/2 4/6/2 8/2/2 7/1/2
f 7/7/3 8/8/3 6/9/3 5/10/3
f 5/11/4 6/3/4 2/12/4 1/13/4
f 3/14/5 7/15/5 5/16/5 1/17/5
f 8/17/6 4/16/6 2/18/6 6/19/6
f 9/20/7 10/21/7 12/22/7 11/23/7
f 13/24/8 14/23/8 16/25/8 15/26/8
o Candle_2
v -0.062500 -0.500000 0.187500
v -0.062500 -0.187500 0.187500
v -0.062500 -0.500000 0.062500
v -0.062500 -0.187500 0.062500
v 0.062500 -0.500000 0.187500
v 0.062500 -0.187500 0.187500
v 0.062500 -0.500000 0.062500
v 0.062500 -0.187500 0.062500
v -0.022097 -0.125000 0.102903
v 0.022097 -0.125000 0.147097
v -0.022097 -0.187500 0.102903
v 0.022097 -0.187500 0.147097
v 0.022097 -0.125000 0.102903
v -0.022097 -0.125000 0.147097
v 0.022097 -0.187500 0.102903
v -0.022097 -0.187500 0.147097
vn -1.0000 -0.0000 -0.0000
vn -0.0000 -0.0000 -1.0000
vn 1.0000 -0.0000 -0.0000
vn -0.0000 -0.0000 1.0000
vn -0.0000 -1.0000 -0.0000
vn -0.0000 1.0000 -0.0000
vn 0.7071 -0.0000 -0.7071
vn 0.7071 -0.0000 0.7071
vt 0.687500 0.687500
vt 0.687500 1.000000
vt 0.562500 1.000000
vt 0.562500 0.687500
vt 0.812500 0.375000
vt 0.812500 0.687500
vt 0.687500 0.375000
vt 0.562500 0.375000
vt 0.812500 1.000000
vt 0.875000 0.500000
vt 1.000000 0.500000
vt 1.000000 0.625000
vt 0.875000 0.625000
vt 1.000000 0.750000
vt 0.875000 0.750000
vt 0.750000 0.000000
vt 0.812500 0.000000
vt 0.812500 0.062500
vt 0.750000 0.062500
vt 0.687500 0.062500
vt 0.750000 0.125000
vt 0.687500 0.125000
s 0
g Candle_2_Candles
usemtl Candles
f 17/27/9 18/28/9 20/29/9 19/30/9
f 19/31/10 20/32/10 24/27/10 23/33/10
f 23/33/11 24/27/11 22/30/11 21/34/11
f 21/32/12 22/35/12 18/28/12 17/27/12
f 19/36/13 23/37/13 21/38/13 17/39/13
f 24/39/14 20/38/14 18/40/14 22/41/14
f 25/42/15 26/43/15 28/44/15 27/45/15
f 29/46/16 30/45/16 32/47/16 31/48/16
o Candle_3
v 0.125000 -0.500000 0.062500
v 0.125000 -0.312500 0.062500
v 0.125000 -0.500000 -0.062500
v 0.125000 -0.312500 -0.062500
v 0.250000 -0.500000 0.062500
v 0.250000 -0.312500 0.062500
v 0.250000 -0.500000 -0.062500
v 0.250000 -0.312500 -0.062500
v 0.165403 -0.250000 -0.022097
v 0.209597 -0.250000 0.022097
v 0.165403 -0.312500 -0.022097
v 0.209597 -0.312500 0.022097
v 0.209597 -0.250000 -0.022097
v 0.165403 -0.250000 0.022097
v 0.209597 -0.312500 -0.022097
v 0.165403 -0.312500 0.022097
vn -1.0000 -0.0000 -0.0000
vn -0.0000 -0.0000 -1.0000
vn 1.0000 -0.0000 -0.0000
vn -0.0000 -0.0000 1.0000
vn -0.0000 -1.0000 -0.0000
vn -0.0000 1.0000 -0.0000
vn 0.7071 -0.0000 -0.7071
vn 0.7071 -0.0000 0.7071
vt 0.500000 0.000000
vt 0.500000 0.187500
vt 0.375000 0.187500
vt 0.375000 0.000000
vt 0.250000 0.187500
vt 0.250000 0.000000
vt 0.125000 0.187500
vt 0.125000 0.000000
vt 0.000000 0.187500
vt 0.000000 0.000000
vt 0.875000 0.250000
vt 1.000000 0.250000
vt 1.000000 0.375000
vt 0.875000 0.375000
vt 1.000000 0.500000
vt 0.875000 0.500000
vt 0.625000 0.187500
vt 0.687500 0.187500
vt 0.687500 0.250000
vt 0.625000 0.250000
vt 0.562500 0.250000
vt 0.625000 0.312500
vt 0.562500 0.312500
s 0
g Candle_3_Candles
usemtl Candles
f 33/49/17 34/50/17 36/51/17 35/52/17
f 35/52/18 36/51/18 40/53/18 39/54/18
f 39/54/19 40/53/19 38/55/19 37/56/19
f 37/56/20 38/55/20 34/57/20 33/58/20
f 35/59/21 39/60/21 37/61/21 33/62/21
f 40/62/22 36/61/22 34/63/22 38/64/22
f 41/65/23 42/66/23 44/67/23 43/68/23
f 45/69/24 46/68/24 48/70/24 47/71/24
